<?xml version="1.0" standalone="no"?>
<!DOCTYPE svg PUBLIC "-//W3C//DTD SVG 20010904//EN"
 "http://www.w3.org/TR/2001/REC-SVG-20010904/DTD/svg10.dtd">
<svg version="1.0" xmlns="http://www.w3.org/2000/svg"
 width="2000.000000pt" height="2000.000000pt" viewBox="0 0 2000.000000 2000.000000"
 preserveAspectRatio="xMidYMid meet">
<metadata>
Created by potrace 1.14, written by Peter Selinger 2001-2017
</metadata>
<g transform="translate(0.000000,2000.000000) scale(0.100000,-0.100000)"
fill="#000000" stroke="none">
<path d="M7340 17031 c0 -637 -4 -1061 -9 -1061 -22 0 -394 -188 -571 -288
-289 -164 -636 -403 -909 -626 -174 -143 -324 -281 -520 -478 l-96 -97 -140
-31 c-77 -17 -148 -33 -157 -35 -148 -33 -419 -120 -628 -202 -516 -202 -1041
-525 -1455 -893 -60 -53 -334 -327 -390 -390 -150 -167 -311 -378 -440 -575
-68 -103 -225 -362 -225 -370 0 -1 -29 -53 -65 -115 -36 -62 -67 -117 -68
-122 -1 -5 18 -21 43 -35 25 -14 88 -50 140 -81 52 -31 111 -65 130 -76 19
-10 99 -56 178 -102 79 -46 147 -84 152 -84 6 0 10 -4 10 -10 0 -5 4 -10 10
-10 5 0 76 -39 157 -86 145 -84 193 -112 263 -151 19 -11 113 -66 209 -122 96
-55 175 -101 176 -101 2 0 67 -38 155 -90 8 -5 56 -32 105 -60 92 -54 106 -65
99 -84 -15 -45 -29 -356 -29 -656 0 -328 12 -552 40 -770 2 -19 7 -57 10 -85
6 -48 42 -276 51 -319 2 -12 7 -37 10 -56 3 -19 12 -66 21 -105 8 -38 16 -78
18 -88 2 -10 6 -26 9 -35 3 -9 7 -29 10 -43 30 -174 232 -804 326 -1014 5 -11
23 -51 40 -90 79 -176 100 -221 183 -385 49 -96 94 -182 101 -190 6 -8 22 -35
35 -60 96 -181 316 -512 500 -750 245 -318 576 -672 845 -905 32 -27 66 -57
75 -66 33 -32 199 -166 296 -239 55 -41 105 -79 112 -85 6 -5 28 -21 48 -35
20 -14 56 -40 80 -57 24 -18 48 -33 54 -33 5 0 11 -3 13 -8 6 -13 297 -196
428 -269 228 -127 298 -163 558 -284 107 -50 286 -122 437 -176 39 -13 79 -28
90 -33 48 -21 344 -111 498 -150 l168 -43 76 -86 c577 -643 1332 -1137 2136
-1396 120 -39 323 -97 385 -110 9 -2 49 -11 87 -19 78 -18 202 -42 267 -51 24
-4 65 -11 91 -16 26 -5 51 -8 55 -7 4 1 25 -1 47 -5 22 -4 72 -10 110 -13 39
-3 88 -8 110 -10 22 -3 205 -8 408 -11 l367 -5 0 1066 c0 634 4 1066 9 1066
22 0 395 188 566 285 506 287 1002 668 1420 1093 l124 125 128 29 c70 16 139
31 153 34 14 3 43 10 65 16 22 6 45 12 51 14 24 5 195 57 279 86 547 186 1038
454 1489 812 155 122 240 199 416 376 189 189 237 242 389 435 39 50 75 95 80
101 84 102 328 495 507 816 3 5 -396 241 -625 369 -120 67 -913 526 -968 560
-34 22 -65 39 -67 39 -19 0 -174 103 -171 113 33 96 41 1041 11 1227 -3 14 -7
61 -10 105 -6 69 -48 383 -61 455 -3 14 -8 41 -11 60 -58 354 -261 1041 -399
1345 -7 17 -25 57 -40 90 -55 127 -82 185 -151 320 -58 115 -173 326 -219 403
-102 171 -213 339 -324 492 -73 101 -170 230 -181 240 -3 3 -36 43 -74 90
-154 189 -365 414 -567 605 -403 380 -884 727 -1374 992 -108 58 -420 213
-430 213 -2 0 -35 14 -72 31 -79 36 -321 132 -390 154 -26 9 -57 20 -68 25
-18 8 -154 53 -165 55 -3 0 -39 11 -80 24 -140 42 -165 49 -290 81 -106 27
-129 36 -148 60 -12 16 -53 61 -90 101 -242 262 -536 521 -782 689 -36 25 -67
47 -70 50 -9 10 -222 145 -285 181 -33 19 -69 39 -80 46 -59 35 -431 216 -500
243 -44 18 -93 37 -110 45 -63 27 -304 111 -350 121 -5 2 -49 14 -97 28 -74
22 -268 72 -317 81 -162 30 -243 45 -276 49 -22 3 -71 10 -110 15 -38 6 -104
13 -145 16 -41 4 -91 9 -110 12 -19 2 -207 7 -417 10 l-383 5 0 -1061z"/>
</g>
</svg>
